<svg version="1.1" xmlns="http://www.w3.org/2000/svg" xmlns:xlink="http://www.w3.org/1999/xlink" width="539.51502" height="472.97297" viewBox="0,0,539.51502,472.97297"><g transform="translate(25.51725,39.96996)"><g data-paper-data="{&quot;isPaintingLayer&quot;:true}" fill-rule="nonzero" stroke-linejoin="miter" stroke-miterlimit="10" stroke-dasharray="" stroke-dashoffset="0" style="mix-blend-mode: normal"><path d="M123.63366,433.00301v-180.18018h232.73273v180.18018z" fill="#969696" stroke="none" stroke-width="0" stroke-linecap="butt"/><path d="M-25.015,433.00301v-180.18018h148.64865v180.18018z" fill="#0dcc00" stroke="none" stroke-width="0" stroke-linecap="butt"/><path d="M355.3604,431.997v-178.67868h156.15616v178.67868z" fill="#0dcc00" stroke="none" stroke-width="0" stroke-linecap="butt"/><path d="M-25.015,254.32433v-294.29429h536.03604v294.29429z" fill="#50deff" stroke="none" stroke-width="0" stroke-linecap="butt"/><path d="M355.60813,292.35737v-37.53754h156.14865v37.53754z" fill="#a56103" stroke="none" stroke-width="0" stroke-linecap="butt"/><path d="M-24.76724,291.86187v-37.53754h148.64865v37.53754z" fill="#a56103" stroke="none" stroke-width="0" stroke-linecap="butt"/><path d="M399.50002,297.5v-5h47v5z" fill="#000000" stroke="none" stroke-width="0" stroke-linecap="butt"/><path d="M417.50002,295.5v-158h14c0,0 0,70.08187 0,98.82282c0,22.24076 0,59.17718 0,59.17718z" fill="#000000" stroke="none" stroke-width="0" stroke-linecap="butt"/><path d="M396.44986,117.0773l8.46087,-8.50963l49.6395,49.35504l-8.46087,8.50963z" fill="#ffffff" stroke="none" stroke-width="0" stroke-linecap="butt"/><path d="M404.91072,165.43234l-8.46087,-8.50963l49.6395,-49.35504l8.46087,8.50963z" data-paper-data="{&quot;index&quot;:null}" fill="#ffffff" stroke="none" stroke-width="0" stroke-linecap="butt"/><path d="M422.50002,191.5c0,8.28427 -7.16345,15 -16,15c-8.83655,0 -16,-6.71573 -16,-15c0,-8.28427 7.16345,-15 16,-15c8.83655,0 16,6.71573 16,15z" fill="#ff0606" stroke="#000000" stroke-width="2" stroke-linecap="butt"/><path d="M460.50002,191.5c0,8.28427 -7.16345,15 -16,15c-8.83655,0 -16,-6.71573 -16,-15c0,-8.28427 7.16345,-15 16,-15c8.83655,0 16,6.71573 16,15z" fill="#ff0606" stroke="#000000" stroke-width="2" stroke-linecap="butt"/><path d="M426.50002,241.5v-11h12v11z" fill="#251e01" stroke="#000000" stroke-width="2" stroke-linecap="butt"/><path d="M350.6515,123.52462l8.6587,-5.0027l71.03834,122.95346l-8.6587,5.0027z" fill="#ffd305" stroke="#000000" stroke-width="2" stroke-linecap="butt"/><path d="M351.454,123.80532l6.90865,-4.03367l6.93288,11.87424l-6.90865,4.03367z" fill="#000000" stroke="#000000" stroke-width="2" stroke-linecap="butt"/><path d="M364.77934,146.13238l6.26096,-3.65553l6.30262,10.79477l-6.26096,3.65553z" fill="#000000" stroke="#000000" stroke-width="2" stroke-linecap="butt"/><path d="M377.76274,168.36961l6.26096,-3.65553l6.30262,10.79477l-6.26096,3.65553z" fill="#000000" stroke="#000000" stroke-width="2" stroke-linecap="butt"/><path d="M390.27814,190.30109l6.26096,-3.65552l6.30262,10.79477l-6.26096,3.65552z" fill="#000000" stroke="#000000" stroke-width="2" stroke-linecap="butt"/><path d="M403.51364,212.9701l6.26096,-3.65553l6.30262,10.79477l-6.26096,3.65553z" fill="#000000" stroke="#000000" stroke-width="2" stroke-linecap="butt"/><path d="M416.11888,234.55964l6.26096,-3.65552l6.30262,10.79477l-6.26096,3.65553z" fill="#000000" stroke="#000000" stroke-width="2" stroke-linecap="butt"/><path d="M35.6515,297.5v-5h47v5z" data-paper-data="{&quot;index&quot;:null}" fill="#000000" stroke="none" stroke-width="0" stroke-linecap="butt"/><path d="M50.6515,295.5c0,0 0,-36.93642 0,-59.17718c0,-28.74095 0,-98.82282 0,-98.82282h14v158z" data-paper-data="{&quot;index&quot;:null}" fill="#000000" stroke="none" stroke-width="0" stroke-linecap="butt"/><path d="M36.06216,166.43234l-8.46087,-8.50963l49.6395,-49.35504l8.46087,8.50963z" data-paper-data="{&quot;index&quot;:null}" fill="#ffffff" stroke="none" stroke-width="0" stroke-linecap="butt"/><path d="M27.6013,116.0773l8.46087,-8.50963l49.6395,49.35504l-8.46087,8.50963z" data-paper-data="{&quot;index&quot;:null}" fill="#ffffff" stroke="none" stroke-width="0" stroke-linecap="butt"/><path d="M75.6515,176.5c8.83655,0 16,6.71573 16,15c0,8.28427 -7.16345,15 -16,15c-8.83655,0 -16,-6.71573 -16,-15c0,-8.28427 7.16345,-15 16,-15z" data-paper-data="{&quot;index&quot;:null}" fill="#ff0606" stroke="#000000" stroke-width="2" stroke-linecap="butt"/><path d="M37.6515,176.5c8.83655,0 16,6.71573 16,15c0,8.28427 -7.16345,15 -16,15c-8.83655,0 -16,-6.71573 -16,-15c0,-8.28427 7.16345,-15 16,-15z" data-paper-data="{&quot;index&quot;:null}" fill="#ff0606" stroke="#000000" stroke-width="2" stroke-linecap="butt"/><path d="M43.6515,241.5v-11h12v11z" data-paper-data="{&quot;index&quot;:null}" fill="#251e01" stroke="#000000" stroke-width="2" stroke-linecap="butt"/><path d="M60.46167,246.47808l-8.6587,-5.0027l71.03834,-122.95346l8.6587,5.0027z" data-paper-data="{&quot;index&quot;:null}" fill="#ffd305" stroke="#000000" stroke-width="2" stroke-linecap="butt"/><path d="M123.76464,135.67956l-6.90865,-4.03367l6.93288,-11.87424l6.90865,4.03367z" data-paper-data="{&quot;index&quot;:null}" fill="#000000" stroke="#000000" stroke-width="2" stroke-linecap="butt"/><path d="M111.06956,156.92716l-6.26096,-3.65553l6.30263,-10.79477l6.26096,3.65553z" data-paper-data="{&quot;index&quot;:null}" fill="#000000" stroke="#000000" stroke-width="2" stroke-linecap="butt"/><path d="M98.08615,179.16438l-6.26096,-3.65553l6.30262,-10.79477l6.26096,3.65553z" data-paper-data="{&quot;index&quot;:null}" fill="#000000" stroke="#000000" stroke-width="2" stroke-linecap="butt"/><path d="M85.57076,201.09586l-6.26096,-3.65552l6.30262,-10.79477l6.26096,3.65552z" data-paper-data="{&quot;index&quot;:null}" fill="#000000" stroke="#000000" stroke-width="2" stroke-linecap="butt"/><path d="M72.33525,223.76487l-6.26096,-3.65553l6.30262,-10.79477l6.26096,3.65553z" data-paper-data="{&quot;index&quot;:null}" fill="#000000" stroke="#000000" stroke-width="2" stroke-linecap="butt"/><path d="M59.73002,245.35441l-6.26096,-3.65553l6.30262,-10.79477l6.26096,3.65552z" data-paper-data="{&quot;index&quot;:null}" fill="#000000" stroke="#000000" stroke-width="2" stroke-linecap="butt"/><path d="M-24.76724,258.82884l536.01802,3.003" fill="none" stroke="#000000" stroke-width="1.5" stroke-linecap="round"/><path d="M-24.26724,276.82884l536.01802,3.003" fill="#ffffff" stroke="none" stroke-width="0" stroke-linecap="round"/><path d="M109.35738,38.10812c0,9.12182 -13.78102,16.51652 -30.78078,16.51652c-16.99976,0 -30.78078,-7.3947 -30.78078,-16.51652c0,-9.12182 13.78102,-16.51652 30.78078,-16.51652c16.99976,0 30.78078,7.3947 30.78078,16.51652z" fill="#ffffff" stroke="none" stroke-width="0" stroke-linecap="butt"/><path d="M145.39342,20.0901c0,11.60959 -11.09204,21.02102 -24.77477,21.02102c-13.68273,0 -24.77477,-9.41143 -24.77477,-21.02102c0,-11.60959 11.09204,-21.02102 24.77477,-21.02102c13.68273,0 24.77477,9.41143 24.77477,21.02102z" fill="#ffffff" stroke="none" stroke-width="0" stroke-linecap="butt"/><path d="M137.88591,30.60061c0,11.60959 -13.4449,21.02102 -30.03003,21.02102c-16.58513,0 -30.03003,-9.41143 -30.03003,-21.02102c0,-11.60959 13.4449,-21.02102 30.03003,-21.02102c16.58513,0 30.03003,9.41143 30.03003,21.02102z" fill="#ffffff" stroke="none" stroke-width="0" stroke-linecap="butt"/><path d="M112.36038,26.84686c0,-7.87794 10.75592,-14.26426 24.02402,-14.26426c13.2681,0 24.02402,6.38633 24.02402,14.26426c0,7.87794 -10.75592,14.26426 -24.02402,14.26426c-13.2681,0 -24.02402,-6.38633 -24.02402,-14.26426z" fill="#ffffff" stroke="none" stroke-width="0" stroke-linecap="butt"/><path d="M106.35438,39.60962c0,-9.95108 7.73082,-18.01802 17.26727,-18.01802c9.53645,0 17.26727,8.06694 17.26727,18.01802c0,9.95108 -7.73082,18.01802 -17.26727,18.01802c-9.53645,0 -17.26727,-8.06694 -17.26727,-18.01802z" fill="#ffffff" stroke="none" stroke-width="0" stroke-linecap="butt"/><path d="M127.3754,41.11112c0,-10.78033 -10.08368,-19.51952 -22.52252,-19.51952c-12.43885,0 -22.52252,8.73919 -22.52252,19.51952c0,10.78033 10.08368,19.51952 22.52252,19.51952c12.43885,0 22.52252,-8.73919 22.52252,-19.51952z" fill="#ffffff" stroke="none" stroke-width="0" stroke-linecap="butt"/><path d="M112.36038,60.63064c0,6.63405 9.41143,12.01201 21.02102,12.01201c11.60959,0 21.02102,-5.37796 21.02102,-12.01201c0,-6.63405 -9.41143,-12.01201 -21.02102,-12.01201c-11.60959,0 -21.02102,5.37796 -21.02102,12.01201z" fill="#ffffff" stroke="none" stroke-width="0" stroke-linecap="butt"/><path d="M107.85588,45.61562c0,4.14628 15.12552,7.50751 33.78378,7.50751c18.65827,0 33.78378,-3.36123 33.78378,-7.50751c0,-4.14628 -15.12552,-7.50751 -33.78378,-7.50751c-18.65827,0 -33.78378,3.36123 -33.78378,7.50751z" fill="#ffffff" stroke="none" stroke-width="0" stroke-linecap="butt"/><path d="M184.43246,29.09911c0,11.60959 -11.09204,21.02102 -24.77477,21.02102c-13.68273,0 -24.77477,-9.41143 -24.77477,-21.02102c0,-11.60959 11.09204,-21.02102 24.77477,-21.02102c13.68273,0 24.77477,9.41143 24.77477,21.02102z" fill="#ffffff" stroke="none" stroke-width="0" stroke-linecap="butt"/><path d="M262.51053,70.3904c0,12.85347 9.74755,23.27327 21.77177,23.27327c12.02422,0 21.77177,-10.4198 21.77177,-23.27327c0,-12.85347 -9.74755,-23.27327 -21.77177,-23.27327c-12.02422,0 -21.77177,10.4198 -21.77177,23.27327z" fill="#ffffff" stroke="none" stroke-width="0" stroke-linecap="butt"/><path d="M283.53155,73.3934c0,7.04868 9.41143,12.76276 21.02102,12.76276c11.60959,0 21.02102,-5.71408 21.02102,-12.76276c0,-7.04868 -9.41143,-12.76276 -21.02102,-12.76276c-11.60959,0 -21.02102,5.71408 -21.02102,12.76276z" fill="#ffffff" stroke="none" stroke-width="0" stroke-linecap="butt"/><path d="M325.5736,45.61562c0,-0.82926 1.00837,-1.5015 2.25225,-1.5015c1.24388,0 2.25225,0.67225 2.25225,1.5015c0,0.82926 -1.00837,1.5015 -2.25225,1.5015c-1.24388,0 -2.25225,-0.67225 -2.25225,-1.5015z" fill="#ffffff" stroke="none" stroke-width="0" stroke-linecap="butt"/><path d="M331.5796,58.37839c0,13.68273 -9.74755,24.77477 -21.77177,24.77477c-12.02422,0 -21.77177,-11.09204 -21.77177,-24.77477c0,-13.68273 9.74755,-24.77477 21.77177,-24.77477c12.02422,0 21.77177,11.09204 21.77177,24.77477z" fill="#ffffff" stroke="none" stroke-width="0" stroke-linecap="butt"/><path d="M322.57059,56.87689c0,2.9024 11.76429,5.25526 26.27628,5.25526c14.51199,0 26.27628,-2.35286 26.27628,-5.25526c0,-2.9024 -11.76429,-5.25526 -26.27628,-5.25526c-14.51199,0 -26.27628,2.35286 -26.27628,5.25526z" fill="#ffffff" stroke="none" stroke-width="0" stroke-linecap="butt"/><path d="M369.11714,65.88589c0,-7.87794 -8.40306,-14.26426 -18.76877,-14.26426c-10.3657,0 -18.76877,6.38633 -18.76877,14.26426c0,7.87794 8.40306,14.26426 18.76877,14.26426c10.3657,0 18.76877,-6.38633 18.76877,-14.26426z" fill="#ffffff" stroke="none" stroke-width="0" stroke-linecap="butt"/><path d="M348.09612,79.39941c0,-8.70719 -6.38633,-15.76577 -14.26426,-15.76577c-7.87794,0 -14.26426,7.05857 -14.26426,15.76577c0,8.70719 6.38633,15.76577 14.26426,15.76577c7.87794,0 14.26426,-7.05857 14.26426,-15.76577z" fill="#ffffff" stroke="none" stroke-width="0" stroke-linecap="butt"/><path d="M378.12615,53.12313c0,10.78033 -10.08368,19.51952 -22.52252,19.51952c-12.43885,0 -22.52252,-8.73919 -22.52252,-19.51952c0,-10.78033 10.08368,-19.51952 22.52252,-19.51952c12.43885,0 22.52252,8.73919 22.52252,19.51952z" fill="#ffffff" stroke="none" stroke-width="0" stroke-linecap="butt"/><path d="M322.57059,62.88289c0,-11.19496 14.11715,-20.27027 31.53153,-20.27027c17.41438,0 31.53153,9.07531 31.53153,20.27027c0,11.19496 -14.11715,20.27027 -31.53153,20.27027c-17.41438,0 -31.53153,-9.07531 -31.53153,-20.27027z" fill="#ffffff" stroke="none" stroke-width="0" stroke-linecap="butt"/><path d="M460.70873,21.5916c0,10.78033 -11.42817,19.51952 -25.52553,19.51952c-14.09736,0 -25.52553,-8.73919 -25.52553,-19.51952c0,-10.78033 11.42817,-19.51952 25.52553,-19.51952c14.09736,0 25.52553,8.73919 25.52553,19.51952z" fill="#ffffff" stroke="none" stroke-width="0" stroke-linecap="butt"/><path d="M450.19822,-3.18317c0,-8.70719 -7.3947,-15.76577 -16.51652,-15.76577c-9.12182,0 -16.51652,7.05857 -16.51652,15.76577c0,8.70719 7.3947,15.76577 16.51652,15.76577c9.12182,0 16.51652,-7.05857 16.51652,-15.76577z" fill="#ffffff" stroke="none" stroke-width="0" stroke-linecap="butt"/><path d="M381.12915,-1.68167c0,-4.56091 9.41143,-8.25826 21.02102,-8.25826c11.60959,0 21.02102,3.69735 21.02102,8.25826c0,4.56091 -9.41143,8.25826 -21.02102,8.25826c-11.60959,0 -21.02102,-3.69735 -21.02102,-8.25826z" fill="#ffffff" stroke="none" stroke-width="0" stroke-linecap="butt"/><path d="M432.1802,5.07508c0,-5.80479 13.4449,-10.51051 30.03003,-10.51051c16.58513,0 30.03003,4.70572 30.03003,10.51051c0,5.80479 -13.4449,10.51051 -30.03003,10.51051c-16.58513,0 -30.03003,-4.70572 -30.03003,-10.51051z" fill="#ffffff" stroke="none" stroke-width="0" stroke-linecap="butt"/><path d="M-22.77025,275.84085l536.01802,3.003" fill="none" stroke="#000000" stroke-width="1.5" stroke-linecap="round"/></g></g></svg>