<svg version="1.1" xmlns="http://www.w3.org/2000/svg" xmlns:xlink="http://www.w3.org/1999/xlink" width="122.5" height="96.98705" viewBox="0,0,122.5,96.98705"><g transform="translate(-301.25,-114.25)"><g data-paper-data="{&quot;isPaintingLayer&quot;:true}" fill-rule="nonzero" stroke-linecap="butt" stroke-linejoin="miter" stroke-miterlimit="10" stroke-dasharray="" stroke-dashoffset="0" style="mix-blend-mode: normal"><path d="M302.77051,168.75108z" fill="#cab0ff" stroke="#6700ff" stroke-width="2"/><path d="M306.81682,192.76277v-67.56757h112.61262v67.56757z" fill="#fff38c" stroke="#000000" stroke-width="2"/><path d="M302.25,124.25v-9h120.5v9z" fill="#ffe500" stroke="#000000" stroke-width="2"/><path d="M335.54794,198.01055c0,6.47637 -5.68403,11.7265 -12.69564,11.7265c-7.01161,0 -12.69563,-5.25013 -12.69563,-11.7265c0,-6.47637 5.68402,-11.72651 12.69563,-11.72651c7.01161,0 12.69564,5.25014 12.69564,11.72651z" fill="#ffe500" stroke="#000000" stroke-width="2"/><path d="M364.04794,198.51055c0,6.47637 -5.68403,11.7265 -12.69564,11.7265c-7.01161,0 -12.69563,-5.25013 -12.69563,-11.7265c0,-6.47637 5.68402,-11.72651 12.69563,-11.72651c7.01161,0 12.69564,5.25014 12.69564,11.72651z" fill="#ffe500" stroke="#000000" stroke-width="2"/><path d="M393.54794,197.01055c0,6.47637 -5.68403,11.7265 -12.69564,11.7265c-7.01161,0 -12.69563,-5.25013 -12.69563,-11.7265c0,-6.47637 5.68402,-11.72651 12.69563,-11.72651c7.01161,0 12.69564,5.25014 12.69564,11.72651z" fill="#ffe500" stroke="#000000" stroke-width="2"/><path d="M422.04794,197.01055c0,6.47637 -5.68403,11.7265 -12.69564,11.7265c-7.01161,0 -12.69563,-5.25013 -12.69563,-11.7265c0,-6.47637 5.68402,-11.72651 12.69563,-11.72651c7.01161,0 12.69564,5.25014 12.69564,11.72651z" fill="#ffe500" stroke="#000000" stroke-width="2"/><path d="M315.99797,165.52951v-31.48603h27.15309v31.48603z" fill="#007dff" stroke="#000000" stroke-width="3"/><path d="M376.49797,165.02951v-31.48603h27.15309v31.48603z" fill="#007dff" stroke="#000000" stroke-width="3"/></g></g></svg>