<svg version="1.1" xmlns="http://www.w3.org/2000/svg" xmlns:xlink="http://www.w3.org/1999/xlink" width="120.27743" height="99.23705" viewBox="0,0,120.27743,99.23705"><g transform="translate(-302.77051,-112)"><g data-paper-data="{&quot;isPaintingLayer&quot;:true}" fill-rule="nonzero" stroke-width="2" stroke-linecap="butt" stroke-linejoin="miter" stroke-miterlimit="10" stroke-dasharray="" stroke-dashoffset="0" style="mix-blend-mode: normal"><path d="M336,136.75c0,4.2802 -11.25329,7.75 -16.5,7.75c-5.24671,0 -2.5,-3.4698 -2.5,-7.75c0,-4.2802 4.25329,-7.75 9.5,-7.75c5.24671,0 9.5,3.4698 9.5,7.75z" fill="#79775f" stroke="#000000"/><path d="M343.5,135c0,6.35127 -10.58172,11.5 -15,11.5c-4.41828,0 -1,-5.14873 -1,-11.5c0,-6.35127 3.58172,-11.5 8,-11.5c4.41828,0 8,5.14873 8,11.5z" fill="#79775f" stroke="#000000"/><path d="M336.5,132.75c0,3.72792 3.46979,6.75 7.75,6.75c4.28021,0 7.75,-3.02208 7.75,-6.75c0,-3.72792 -3.46979,-6.75 -7.75,-6.75c-4.28021,0 -7.75,3.02208 -7.75,6.75z" fill="#79775f" stroke="#000000"/><path d="M360.5,138.25c0,7.59392 -10.46979,13.75 -14.75,13.75c-4.28021,0 -0.75,-6.15608 -0.75,-13.75c0,-7.59392 3.46979,-13.75 7.75,-13.75c4.28021,0 7.75,6.15608 7.75,13.75z" fill="#79775f" stroke="#000000"/><path d="M369.5,128.25c0,5.10863 -2.01472,9.25 -4.5,9.25c-2.48528,0 -4.5,-4.14137 -4.5,-9.25c0,-5.10863 2.01472,-9.25 4.5,-9.25c2.48528,0 4.5,4.14137 4.5,9.25z" fill="#79775f" stroke="#000000"/><path d="M362.5,121.5c0,4.14213 -3.35787,7.5 -7.5,7.5c-4.14213,0 -7.5,-3.35787 -7.5,-7.5c0,-4.14213 3.35787,-7.5 7.5,-7.5c4.14213,0 7.5,3.35787 7.5,7.5z" fill="#79775f" stroke="#000000"/><path d="M350.5,124.5c0,5.79899 -1.90279,10.5 -4.25,10.5c-2.34721,0 -4.25,-4.70101 -4.25,-10.5c0,-5.79899 1.90279,-10.5 4.25,-10.5c2.34721,0 4.25,4.70101 4.25,10.5z" fill="#79775f" stroke="#000000"/><path d="M340.5,123.25c0,2.07107 -3.35787,3.75 -7.5,3.75c-4.14213,0 -7.5,-1.67893 -7.5,-3.75c0,-2.07107 3.35787,-3.75 7.5,-3.75c4.14213,0 7.5,1.67893 7.5,3.75z" fill="#79775f" stroke="#000000"/><path d="M372,145.25c0,4.83249 -3.35787,8.75 -7.5,8.75c-4.14213,0 -7.5,-3.91751 -7.5,-8.75c0,-4.83249 10.35787,-8.75 14.5,-8.75c4.14213,0 0.5,3.91751 0.5,8.75z" fill="#79775f" stroke="#000000"/><path d="M369.5,139.75c0,-2.8995 -8.05887,-5.25 -18,-5.25c-9.94112,0 -18,2.3505 -18,5.25c0,2.8995 1.05888,5.25 11,5.25c9.94113,0 25,-2.3505 25,-5.25z" fill="#79775f" stroke="#000000"/><path d="M390.5,130.5c0,4.14213 -4.14137,7.5 -9.25,7.5c-5.10863,0 -9.25,-3.35787 -9.25,-7.5c0,-4.14213 4.14137,-7.5 9.25,-7.5c5.10863,0 9.25,3.35787 9.25,7.5z" fill="#79775f" stroke="#000000"/><path d="M383,120.25c0,4.00406 -3.46979,7.25 -7.75,7.25c-4.28021,0 -7.75,-3.24594 -7.75,-7.25c0,-4.00406 3.46979,-7.25 7.75,-7.25c4.28021,0 7.75,3.24594 7.75,7.25z" fill="#79775f" stroke="#000000"/><path d="M401.5,130.5c0,1.933 -2.12664,3.5 -4.75,3.5c-2.62336,0 -4.75,-1.567 -4.75,-3.5c0,-1.933 2.12664,-3.5 4.75,-3.5c2.62336,0 4.75,1.567 4.75,3.5z" fill="#79775f" stroke="#000000"/><path d="M387.5,134.5c0,2.20914 -5.93223,4 -13.25,4c-7.31777,0 -13.25,-1.79086 -13.25,-4c0,-2.20914 5.93223,-4 13.25,-4c7.31777,0 13.25,1.79086 13.25,4z" fill="#79775f" stroke="#000000"/><path d="M379,127.25c0,2.8995 -3.13401,5.25 -7,5.25c-3.86599,0 -7,-2.3505 -7,-5.25c0,-2.8995 3.13401,-5.25 7,-5.25c3.86599,0 7,2.3505 7,5.25z" fill="#79775f" stroke="#000000"/><path d="M402.5,139.5c0,2.76143 -10.35787,5 -14.5,5c-4.14213,0 -0.5,-2.23857 -0.5,-5c0,-2.76143 3.35787,-5 7.5,-5c4.14213,0 7.5,2.23857 7.5,5z" fill="#79775f" stroke="#000000"/><path d="M392.5,141.75c0,3.17564 -10.91751,5.75 -15.75,5.75c-4.83249,0 -1.75,-2.57437 -1.75,-5.75c0,-3.17563 3.91751,-5.75 8.75,-5.75c4.83249,0 8.75,2.57437 8.75,5.75z" fill="#79775f" stroke="#000000"/><path d="M395.5,131.25c0,2.07107 -1.67893,3.75 -3.75,3.75c-2.07107,0 -3.75,-1.67893 -3.75,-3.75c0,-2.07107 1.67893,-3.75 3.75,-3.75c2.07107,0 3.75,1.67893 3.75,3.75z" fill="#79775f" stroke="#000000"/><path d="M412,126c0,5.79899 -4.47715,10.5 -10,10.5c-5.52285,0 -10,-4.70101 -10,-10.5c0,-5.79899 4.47715,-10.5 10,-10.5c5.52285,0 10,4.70101 10,10.5z" fill="#79775f" stroke="#000000"/><path d="M395.48276,121.29167c0,3.19865 -2.68243,5.79167 -5.99138,5.79167c-3.30894,0 -5.99138,-2.59302 -5.99138,-5.79167c0,-3.19865 2.68243,-5.79166 5.99138,-5.79166c3.30894,0 5.99138,2.59301 5.99138,5.79166z" fill="#79775f" stroke="#000000"/><path d="M416,135.5c0,3.58985 -3.80558,6.5 -8.5,6.5c-4.69442,0 -8.5,-2.91015 -8.5,-6.5c0,-3.58985 3.80558,-6.5 8.5,-6.5c4.69442,0 8.5,2.91015 8.5,6.5z" fill="#79775f" stroke="#000000"/><path d="M302.77051,168.75108z" fill="#cab0ff" stroke="#6700ff"/><path d="M306.81682,192.76277v-52.56757h112.61262v52.56757z" fill="#2eff52" stroke="#000000"/><path d="M335.54794,198.01055c0,6.47637 -5.68403,11.7265 -12.69564,11.7265c-7.01161,0 -12.69563,-5.25013 -12.69563,-11.7265c0,-6.47637 5.68402,-11.72651 12.69563,-11.72651c7.01161,0 12.69564,5.25014 12.69564,11.72651z" fill="#28dc7a" stroke="#000000"/><path d="M364.04794,198.51055c0,6.47637 -5.68403,11.7265 -12.69564,11.7265c-7.01161,0 -12.69563,-5.25013 -12.69563,-11.7265c0,-6.47637 5.68402,-11.72651 12.69563,-11.72651c7.01161,0 12.69564,5.25014 12.69564,11.72651z" fill="#28dc7a" stroke="#000000"/><path d="M393.54794,197.01055c0,6.47637 -5.68403,11.7265 -12.69564,11.7265c-7.01161,0 -12.69563,-5.25013 -12.69563,-11.7265c0,-6.47637 5.68402,-11.72651 12.69563,-11.72651c7.01161,0 12.69564,5.25014 12.69564,11.72651z" fill="#28dc7a" stroke="#000000"/><path d="M422.04794,197.01055c0,6.47637 -5.68403,11.7265 -12.69564,11.7265c-7.01161,0 -12.69563,-5.25013 -12.69563,-11.7265c0,-6.47637 5.68402,-11.72651 12.69563,-11.72651c7.01161,0 12.69564,5.25014 12.69564,11.72651z" fill="#28dc7a" stroke="#000000"/></g></g></svg>