<svg version="1.1" xmlns="http://www.w3.org/2000/svg" xmlns:xlink="http://www.w3.org/1999/xlink" width="138.06096" height="114.56824" viewBox="0,0,138.06096,114.56824"><g transform="translate(-152.99958,-107.08993)"><g data-paper-data="{&quot;isPaintingLayer&quot;:true}" fill-rule="nonzero" stroke-linejoin="miter" stroke-miterlimit="10" stroke-dasharray="" stroke-dashoffset="0" style="mix-blend-mode: normal"><path d="M153.99959,166.71317c0,-11.98548 4.79895,-22.16137 11.46393,-25.79259c-0.00693,0.09482 -0.01253,0.19001 -0.0168,0.28555c-0.00672,0.15036 -0.01011,0.30159 -0.01011,0.45361c-0.3416,10.51962 0.06221,21.05052 0,31.5755c-0.03628,6.13927 -0.65493,12.44009 -0.92556,18.69903c-6.16494,-4.04703 -10.51147,-13.81458 -10.51147,-25.2211z" fill="#9966ff" stroke="#000000" stroke-width="2" stroke-linecap="butt"/><path d="M166.02349,193.43197v-52.82809h70.12528v52.82809z" fill="#9966ff" stroke="#000000" stroke-width="2" stroke-linecap="butt"/><text transform="translate(168.74473,159.14531) scale(0.38105,0.38105)" font-size="40" xml:space="preserve" fill="#ffffff" fill-rule="nonzero" stroke-opacity="0" stroke="#000000" stroke-width="0" stroke-linecap="butt" stroke-linejoin="miter" stroke-miterlimit="10" stroke-dasharray="" stroke-dashoffset="0" font-family="Serif" font-weight="normal" text-anchor="start" style="mix-blend-mode: normal"><tspan x="0" dy="0">BYJU'S </tspan><tspan x="0" dy="46.150000000000006px">EXPRESS</tspan></text><path d="M237.19868,193.59326v-74.52658h42.75168v74.52658z" fill="#9966ff" stroke="#000000" stroke-width="2" stroke-linecap="butt"/><path d="M230.55483,118.20012v-10.11019h59.50571v10.11019z" fill="#cab0ff" stroke="#000000" stroke-width="2" stroke-linecap="butt"/><path d="M165.56073,197.63737v-3.46635h115.83394v3.46635z" fill="#cab0ff" stroke="#000000" stroke-width="2" stroke-linecap="butt"/><path d="M285.43874,199.32643c0,11.78119 -10.33985,21.33174 -23.09469,21.33174c-12.75485,0 -23.09469,-9.55054 -23.09469,-21.33174c0,-11.78119 10.33985,-21.33174 23.09469,-21.33174c12.75485,0 23.09469,9.55054 23.09469,21.33174z" fill="#cab0ff" stroke="#000000" stroke-width="2" stroke-linecap="butt"/><path d="M225.44464,206.42125c0,6.47637 -5.68403,11.7265 -12.69564,11.7265c-7.01161,0 -12.69563,-5.25013 -12.69563,-11.7265c0,-6.47637 5.68403,-11.7265 12.69563,-11.7265c7.01161,0 12.69564,5.25013 12.69564,11.7265z" fill="#cab0ff" stroke="#000000" stroke-width="2" stroke-linecap="butt"/><path d="M194.04794,206.51054c0,6.47637 -5.68403,11.7265 -12.69564,11.7265c-7.01161,0 -12.69563,-5.25013 -12.69563,-11.7265c0,-6.47637 5.68402,-11.72651 12.69563,-11.72651c7.01161,0 12.69564,5.25014 12.69564,11.72651z" fill="#cab0ff" stroke="#000000" stroke-width="2" stroke-linecap="butt"/><path d="M182.60362,203.41462l29.75286,1.15545" fill="none" stroke="#000000" stroke-width="3" stroke-linecap="round"/><path d="M244.99797,161.52952v-31.48603h27.15309v31.48603z" fill="#007dff" stroke="#000000" stroke-width="3" stroke-linecap="butt"/><path d="M180.87045,140.15366v-12.70996h10.39906v12.70996z" fill="#9966ff" stroke="#000000" stroke-width="3" stroke-linecap="butt"/><path d="M175.09319,125.99941v-2.88863h21.37584v2.88863z" fill="#9966ff" stroke="#000000" stroke-width="3" stroke-linecap="butt"/><path d="" fill="#cab0ff" stroke="#6700ff" stroke-width="2" stroke-linecap="butt"/><path d="" fill="#9966ff" stroke="#000000" stroke-width="2" stroke-linecap="butt"/><path d="" fill="#cab0ff" stroke="#000000" stroke-width="2" stroke-linecap="butt"/><path d="" fill="#cab0ff" stroke="#000000" stroke-width="2" stroke-linecap="butt"/><path d="" fill="#cab0ff" stroke="#000000" stroke-width="2" stroke-linecap="butt"/><path d="" fill="#cab0ff" stroke="#000000" stroke-width="2" stroke-linecap="butt"/><path d="" fill="#cab0ff" stroke="#000000" stroke-width="2" stroke-linecap="butt"/><path d="" fill="#007dff" stroke="#000000" stroke-width="3" stroke-linecap="butt"/><path d="" fill="#007dff" stroke="#000000" stroke-width="3" stroke-linecap="butt"/></g></g></svg>